<svg width="512" height="512" fill="none" xmlns="http://www.w3.org/2000/svg"><circle cx="256" cy="256" r="149" fill="#fff"/><path fill-rule="evenodd" clip-rule="evenodd" d="M188.142 27.634a64.001 64.001 0 0 0-45.255 18.745l-96.508 96.508a64.001 64.001 0 0 0-18.745 45.255v136.483A64 64 0 0 0 46.38 369.88l96.508 96.508a63.998 63.998 0 0 0 45.255 18.745h136.483a63.997 63.997 0 0 0 45.255-18.745l96.508-96.508a63.997 63.997 0 0 0 18.745-45.255V188.142a63.998 63.998 0 0 0-18.745-45.255L369.88 46.379a64 64 0 0 0-45.255-18.745H188.142Zm190.577 228.737c0 67.571-54.777 122.348-122.348 122.348s-122.347-54.777-122.347-122.348S188.8 134.023 256.371 134.023 378.719 188.8 378.719 256.371Zm-56.096-.484c0 36.323-29.446 65.768-65.768 65.768-36.323 0-65.768-29.445-65.768-65.768 0-36.322 29.445-65.767 65.768-65.767 36.322 0 65.768 29.445 65.768 65.767Z" fill="#000"/></svg>