<svg width="512" height="512" viewBox="0 0 512 512" fill="none" xmlns="http://www.w3.org/2000/svg">
<path fill-rule="evenodd" clip-rule="evenodd" d="M176.471 1.14146e-06C159.497 1.26327e-06 143.218 6.74286 131.216 18.7452L18.745 131.216C6.74272 143.218 -0.000122192 159.497 -0.00012207 176.471L-0.000120929 335.529C-0.000120807 352.503 6.74273 368.781 18.7451 380.784L131.216 493.255C143.218 505.257 159.497 512 176.471 512H335.529C352.503 512 368.781 505.257 380.784 493.255L493.255 380.784C505.257 368.781 512 352.503 512 335.529V176.471C512 159.497 505.257 143.218 493.255 131.216L380.784 18.7452C368.781 6.74284 352.503 -1.2181e-07 335.529 0L176.471 1.14146e-06ZM392.908 255.986C392.908 331.606 331.606 392.908 255.986 392.908C180.365 392.908 119.063 331.606 119.063 255.986C119.063 180.365 180.365 119.063 255.986 119.063C331.606 119.063 392.908 180.365 392.908 255.986ZM330.13 255.445C330.13 296.094 297.177 329.047 256.527 329.047C215.877 329.047 182.924 296.094 182.924 255.445C182.924 214.795 215.877 181.842 256.527 181.842C297.177 181.842 330.13 214.795 330.13 255.445Z" fill="#FFA500"/>
<circle cx="256.527" cy="255.445" r="76.8498" fill="#FF3C3C"/>
</svg>
