<svg width="534" height="534" fill="none" xmlns="http://www.w3.org/2000/svg"><path d="M254.754 5.072a32 32 0 0 1 24.492 0L443.552 73.13a32 32 0 0 1 17.318 17.318l68.058 164.306a32.008 32.008 0 0 1 0 24.492L460.87 443.552a32 32 0 0 1-17.318 17.318l-164.306 68.058a32.008 32.008 0 0 1-24.492 0L90.448 460.87a32 32 0 0 1-17.318-17.318L5.072 279.246a32 32 0 0 1 0-24.492L73.13 90.448A32 32 0 0 1 90.448 73.13L254.754 5.072Z" fill="orange"/><path d="M254.754 102.072a32.004 32.004 0 0 1 24.492 0l95.716 39.647a32.003 32.003 0 0 1 17.319 17.319l39.647 95.716a32.008 32.008 0 0 1 0 24.492l-39.647 95.716a32.003 32.003 0 0 1-17.319 17.319l-95.716 39.647a32.008 32.008 0 0 1-24.492 0l-95.716-39.647a32.003 32.003 0 0 1-17.319-17.319l-39.647-95.716a32.004 32.004 0 0 1 0-24.492l39.647-95.716a32.003 32.003 0 0 1 17.319-17.319l95.716-39.647Z" fill="#FF3C3C"/><path fill-rule="evenodd" clip-rule="evenodd" d="M279.148 55.257a32 32 0 0 0-24.492 0l-128.773 53.339a31.996 31.996 0 0 0-17.318 17.318l-53.34 128.773a32 32 0 0 0 0 24.492l53.34 128.773a31.996 31.996 0 0 0 17.318 17.318l128.773 53.34a31.999 31.999 0 0 0 24.492 0l128.773-53.34a32.003 32.003 0 0 0 17.318-17.318l53.339-128.773a31.999 31.999 0 0 0 0-24.492l-53.339-128.773a32.001 32.001 0 0 0-17.319-17.318l-128.772-53.34Zm.068 49.902a31.999 31.999 0 0 0-24.492 0l-93.507 38.732a31.996 31.996 0 0 0-17.318 17.318l-38.732 93.506a32.008 32.008 0 0 0 0 24.492l38.732 93.507a32 32 0 0 0 17.318 17.318l93.507 38.732a31.999 31.999 0 0 0 24.492 0l93.507-38.732a32.003 32.003 0 0 0 17.318-17.318l38.732-93.507a32.005 32.005 0 0 0 0-24.491l-38.732-93.507a32 32 0 0 0-17.318-17.318l-93.507-38.732Z" fill="#fff"/></svg>